<?xml version="1.0" encoding="UTF-8"?>
<svg version="1.1" xmlns="http://www.w3.org/2000/svg" width="512" height="512">
<path d="M0 0 C1.60064933 -0.00668677 1.60064933 -0.00668677 3.23363501 -0.01350862 C4.4051105 -0.01332426 5.576586 -0.01313989 6.78356075 -0.01294994 C8.02878425 -0.01662663 9.27400775 -0.02030332 10.55696529 -0.02409142 C14.01558601 -0.03321213 17.4741593 -0.03782661 20.93278754 -0.04048073 C24.66234964 -0.04438678 28.39189803 -0.05396497 32.12145138 -0.0626936 C41.12992349 -0.08245034 50.13839671 -0.09252358 59.14688507 -0.10142139 C63.39075713 -0.1058059 67.63462795 -0.11117232 71.87849903 -0.11641026 C85.98917952 -0.13342235 100.09985923 -0.1479158 114.2105484 -0.155159 C117.87184367 -0.15706885 121.53313892 -0.15898918 125.19443417 -0.16094494 C126.10441487 -0.16142868 127.01439556 -0.16191242 127.95195144 -0.16241082 C142.68798514 -0.17070839 157.4239376 -0.19604079 172.15993584 -0.22852562 C187.2943733 -0.26161632 202.42876951 -0.27960961 217.56324333 -0.28280324 C226.05851272 -0.28496656 234.55366365 -0.29368903 243.04889774 -0.31926441 C250.28500908 -0.34099897 257.52097319 -0.34900834 264.75711346 -0.33929763 C268.44662961 -0.33476076 272.13584216 -0.33660292 275.82531643 -0.35605907 C279.83268755 -0.37700831 283.83938895 -0.36668034 287.84679317 -0.35352612 C289.00265362 -0.36449536 290.15851406 -0.37546461 291.34940058 -0.38676625 C303.70323105 -0.2890959 313.13807737 3.58557644 321.88852596 12.23968983 C331.06636987 22.05981379 334.08286851 32.01683134 334.02031612 45.30472279 C334.02414167 46.18261514 334.02796722 47.0605075 334.03190869 47.96500266 C334.04215995 50.88263652 334.03826161 53.80007069 334.03427792 56.71771717 C334.03862875 58.81939849 334.04381313 60.92107823 334.04976559 63.02275562 C334.0631268 68.71494643 334.06373746 74.40707073 334.06120229 80.09927416 C334.06013063 84.85809791 334.06502092 89.61690832 334.06980771 94.3757292 C334.08089293 105.6061091 334.08134582 116.83645555 334.07529354 128.06683826 C334.06925374 139.63720501 334.08156725 151.20745015 334.10286361 162.77779615 C334.1204988 172.72627039 334.12647794 182.674706 334.12322587 192.62319529 C334.12141595 198.55854865 334.1240202 204.49381525 334.13794041 210.4291544 C334.1505453 216.01228913 334.14854938 221.59523473 334.13552952 227.17836666 C334.13317 229.22170228 334.1358759 231.26505132 334.14415264 233.30837154 C334.20688436 250.0054483 332.88563271 263.50941058 321.13461971 276.38422108 C314.18059229 283.00262942 305.12711749 287.2498055 295.51923943 287.26844215 C294.45213987 287.2729 293.38504032 287.27735784 292.28560442 287.28195077 C291.11412892 287.28176641 289.94265343 287.28158205 288.73567867 287.2813921 C287.49045518 287.28506879 286.24523168 287.28874547 284.96227413 287.29253358 C281.50365341 287.30165428 278.04508012 287.30626877 274.58645189 287.30892289 C270.85688979 287.31282893 267.12734139 287.32240712 263.39778805 287.33113575 C254.38931594 287.35089249 245.38084272 287.36096573 236.37235436 287.36986354 C232.12848229 287.37424806 227.88461148 287.37961447 223.64074039 287.38485241 C209.53005991 287.40186451 195.41938019 287.41635795 181.30869102 287.42360115 C177.64739576 287.425511 173.9861005 287.42743134 170.32480526 287.42938709 C169.41482456 287.42987083 168.50484386 287.43035457 167.56728799 287.43085297 C152.83125428 287.43915055 138.09530183 287.46448294 123.35930359 287.49696777 C108.22486612 287.53005848 93.09046992 287.54805176 77.9559961 287.55124539 C69.46072671 287.55340871 60.96557577 287.56213118 52.47034168 287.58770657 C45.23423035 287.60944113 37.99826624 287.6174505 30.76212596 287.60773978 C27.07260982 287.60320292 23.38339727 287.60504508 19.693923 287.62450123 C15.68655187 287.64545046 11.67985048 287.63512249 7.67244625 287.62196827 C6.51658581 287.63293752 5.36072536 287.64390676 4.16983885 287.65520841 C-8.26390822 287.55690622 -17.35926498 283.59168562 -26.33413029 275.16937733 C-35.33793957 265.87999947 -38.3942853 255.09995646 -38.38082218 242.44473743 C-38.3837933 241.57026278 -38.38676443 240.69578812 -38.38982558 239.79481423 C-38.39849653 236.86480863 -38.40001949 233.93484396 -38.4015131 231.00482655 C-38.40614246 228.90373618 -38.41116728 226.80264666 -38.41655827 224.70155811 C-38.42967416 218.99262031 -38.43612582 213.28369426 -38.44056892 207.57474375 C-38.44350137 204.00616994 -38.44760655 200.43759933 -38.4520731 196.86902714 C-38.46574682 185.69854716 -38.4754137 174.52807451 -38.47927499 163.35758674 C-38.48375348 150.47302513 -38.50129228 137.58856973 -38.53027558 124.70404041 C-38.55191226 114.73866747 -38.56198036 104.77332437 -38.56331611 94.8079282 C-38.56436284 88.85909353 -38.57024264 82.9103587 -38.58813572 76.96154881 C-38.60465032 71.3620626 -38.60675538 65.76275094 -38.59799671 60.16324902 C-38.59722812 58.11346245 -38.60154553 56.06366637 -38.61145496 54.01390362 C-38.68751815 37.29319532 -37.38445745 23.77882329 -25.61538029 10.88422108 C-18.66135286 4.26581274 -9.60787806 0.01863665 0 0 Z M119.52524471 91.70062733 C113.38265517 100.16707265 112.68523927 108.86668835 113.75961971 119.13422108 C115.55067676 127.00851328 120.06223289 133.36282894 126.34278011 138.40529346 C128.3118362 140.80807459 128.12536465 142.40641743 128.11264706 145.48846912 C128.11630276 146.58358311 128.11995846 147.67869709 128.12372494 148.80699635 C128.11442959 149.99134769 128.10513424 151.17569904 128.09555721 152.39593983 C128.10807426 154.90180177 128.12111159 157.40766116 128.13461971 159.91351795 C128.13854464 163.8656774 128.13463506 167.81758396 128.11997128 171.76971912 C128.11138117 175.58300837 128.13312585 179.39524321 128.15805721 183.20843983 C128.1447134 184.38267002 128.13136959 185.55690022 128.11762142 186.76671314 C128.18129321 193.86824215 129.06705483 198.66517094 133.75961971 204.13422108 C137.71904724 207.99212482 141.53847608 210.08692859 147.15415096 210.16937733 C154.09855829 209.74250971 158.27471028 207.89523156 163.00961971 202.63422108 C165.92994435 198.46232873 167.00982779 195.82816316 166.9356451 190.68231678 C166.92646557 189.59050602 166.91728603 188.49869526 166.90782833 187.37379932 C166.89114605 186.19774632 166.87446377 185.02169331 166.85727596 183.81000233 C166.85321057 181.311958 166.85132653 178.81390934 166.85141659 176.3158617 C166.84332245 172.38284624 166.82219632 168.4518347 166.76328182 164.51923084 C166.71191459 160.71925025 166.71758826 156.92272884 166.73227596 153.12250233 C166.70142406 151.95657047 166.67057217 150.79063862 166.63878536 149.5893755 C166.7143175 143.09706504 167.45974287 139.72974462 172.1675787 135.09198475 C172.96461712 134.42390293 173.76165554 133.75582111 174.58284664 133.06749439 C179.58991639 128.62052908 181.52964348 122.33880794 181.99790096 115.81390858 C182.23807431 103.50186417 180.06206791 95.5101393 171.40024471 86.40375233 C164.15977308 80.18080259 155.55401562 76.75740928 145.99790096 76.91937733 C134.99377417 77.97561986 126.49198576 83.3487665 119.52524471 91.70062733 Z " fill="#1768FF" transform="translate(108.24038028717041,208.86577892303467)"/>
<path d="M0 0 C25.08971431 20.76156952 41.74690055 48.18524485 45.69593811 80.89820862 C46.13788071 86.35480604 46.01830612 91.83415952 45.99609375 97.3046875 C45.99422522 98.63846788 45.99280337 99.97224896 45.99180603 101.30603027 C45.9880151 104.79119817 45.97821465 108.2763234 45.96710205 111.76147461 C45.95681373 115.32795627 45.95223755 118.89444512 45.94726562 122.4609375 C45.93712143 129.44014166 45.91754117 136.41922916 45.8984375 143.3984375 C28.0784375 143.3984375 10.2584375 143.3984375 -8.1015625 143.3984375 C-8.14023437 137.613125 -8.14023437 137.613125 -8.1796875 131.7109375 C-8.21823496 127.92440882 -8.26335426 124.1380105 -8.30908203 120.3515625 C-8.33709382 117.7448563 -8.35840541 115.13806828 -8.37255859 112.53125 C-8.51323021 88.07314436 -10.39525726 66.27670527 -28.28125 47.8984375 C-44.47740587 33.54173423 -62.86708241 29.2657583 -84.1015625 30.3984375 C-99.98360469 32.33700704 -114.39378345 41.6481204 -124.7890625 53.4609375 C-135.68582049 67.40493047 -139.51682831 83.44098399 -139.61328125 100.91796875 C-139.63123245 102.14255295 -139.64918365 103.36713715 -139.66767883 104.62882996 C-139.72128959 108.4894988 -139.75551892 112.35004759 -139.7890625 116.2109375 C-139.82227903 118.84962591 -139.8567726 121.48829857 -139.89257812 124.12695312 C-139.97935951 130.55079383 -140.03985153 136.97411295 -140.1015625 143.3984375 C-157.9215625 143.3984375 -175.7415625 143.3984375 -194.1015625 143.3984375 C-194.16493126 135.89275987 -194.22497889 128.38808294 -194.25681305 120.88237 C-194.27248429 117.38516485 -194.29332725 113.88818716 -194.32788086 110.39111328 C-194.50452556 92.00967684 -194.67540482 73.89381106 -188.4765625 56.3359375 C-188.22495361 55.60681152 -187.97334473 54.87768555 -187.71411133 54.12646484 C-182.97953522 41.0073028 -176.04029006 29.09536105 -167.1015625 18.3984375 C-165.85439453 16.90570313 -165.85439453 16.90570313 -164.58203125 15.3828125 C-123.64193105 -32.05788606 -49.06664968 -38.54297146 0 0 Z " fill="#1692FF" transform="translate(330.1015625,40.6015625)"/>
</svg>
